<?xml version="1.0" standalone="no"?>
<!DOCTYPE svg PUBLIC "-//W3C//DTD SVG 20010904//EN"
 "http://www.w3.org/TR/2001/REC-SVG-20010904/DTD/svg10.dtd">
<svg version="1.0" xmlns="http://www.w3.org/2000/svg"
 width="1092.000000pt" height="1092.000000pt" viewBox="0 0 1092.000000 1092.000000"
 preserveAspectRatio="xMidYMid meet">
<metadata>
Created by potrace 1.14, written by Peter Selinger 2001-2017
</metadata>
<g transform="translate(0.000000,1092.000000) scale(0.100000,-0.100000)"
fill="#000000" stroke="none">
<path d="M5110 10600 c-25 -4 -106 -13 -180 -20 -151 -13 -375 -48 -555 -85
-200 -42 -435 -107 -428 -118 3 -6 1 -7 -6 -3 -22 14 -431 -130 -625 -219 -39
-18 -95 -43 -123 -55 -29 -12 -53 -27 -53 -33 0 -6 -3 -7 -6 -4 -12 12 -310
-150 -519 -282 -175 -110 -286 -191 -278 -204 3 -6 1 -7 -5 -3 -12 7 -152 -91
-152 -106 0 -4 -6 -8 -12 -8 -7 0 -35 -20 -62 -45 -26 -25 -50 -45 -53 -45
-12 0 -253 -222 -369 -341 -195 -199 -318 -342 -470 -544 -206 -273 -419 -637
-562 -955 -104 -234 -209 -521 -196 -541 4 -7 3 -9 -3 -6 -11 7 -100 -303
-105 -363 -2 -19 -6 -37 -9 -40 -20 -16 -89 -455 -109 -693 -19 -219 -18 -680
1 -837 4 -36 11 -101 14 -145 4 -44 11 -81 15 -83 5 -2 6 -10 3 -17 -6 -16 7
-103 43 -290 65 -333 169 -673 306 -1000 57 -137 236 -495 247 -495 4 0 8 -6
8 -12 0 -32 245 -410 373 -577 346 -449 803 -881 1235 -1168 158 -105 227
-148 345 -215 661 -377 1385 -606 2165 -683 33 -3 78 -8 100 -12 22 -3 67 -5
100 -6 33 0 66 -5 74 -11 8 -6 12 -6 9 -1 -7 12 74 14 83 3 3 -4 19 -4 37 1
18 5 32 6 32 2 0 -10 121 -8 138 2 15 10 16 -5 2 -19 -7 -7 -6 -11 4 -11 8 0
15 3 14 6 -2 20 4 22 17 5 13 -18 14 -18 9 6 -4 19 -3 21 4 11 9 -13 13 -13
28 0 16 12 17 12 11 -3 -3 -10 -1 -20 5 -24 6 -4 8 -3 5 2 -3 6 -2 16 4 24 7
13 9 12 9 -2 0 -9 4 -19 9 -22 5 -4 7 4 5 16 -2 13 -2 17 2 11 3 -7 10 -13 15
-13 6 0 8 4 5 9 -11 18 34 5 49 -14 16 -20 16 -19 5 2 -9 19 -8 23 5 23 10 0
13 -5 9 -13 -6 -9 -4 -9 7 -1 18 14 50 14 42 0 -4 -7 -1 -7 8 1 8 6 43 14 79
17 36 3 79 8 95 11 17 2 55 7 85 10 490 50 1143 224 1553 413 34 16 72 32 85
36 12 4 22 12 22 17 0 6 4 8 8 5 5 -3 80 31 168 75 596 301 1138 721 1574
1219 41 47 77 87 80 90 3 3 30 37 61 75 247 310 432 598 600 935 282 566 447
1150 510 1810 14 139 18 648 6 780 -16 181 -30 296 -38 311 -4 9 -6 19 -3 22
3 2 -5 63 -17 133 -12 71 -24 144 -26 162 -3 17 -9 32 -14 32 -5 0 -6 6 -3 14
8 21 -72 332 -136 526 -89 271 -204 547 -312 750 -106 200 -160 290 -171 283
-6 -3 -7 -1 -3 5 4 6 -5 31 -20 54 -66 107 -88 138 -96 138 -4 0 -7 3 -6 8 7
21 -292 419 -312 414 -6 -1 -9 1 -6 6 8 13 -104 143 -116 136 -7 -4 -8 -2 -4
4 8 14 -195 232 -216 232 -5 0 -8 5 -8 11 0 9 -24 39 -32 39 -2 0 -41 36 -88
81 -118 113 -176 160 -184 151 -4 -4 -6 -2 -4 4 3 11 -164 154 -180 154 -6 0
-12 4 -14 9 -7 18 -99 81 -110 75 -6 -4 -8 -3 -5 4 4 6 -20 29 -55 53 -35 23
-92 62 -127 86 -72 50 -123 78 -133 75 -5 -1 -8 2 -8 7 0 17 -400 241 -400
224 0 -4 -4 -3 -8 3 -10 15 -72 47 -72 37 0 -5 -4 -3 -8 3 -20 33 -589 261
-620 249 -7 -2 -11 -1 -8 4 6 9 -233 83 -276 85 -14 0 -24 3 -22 6 6 6 -187
54 -341 85 -135 27 -413 68 -585 86 -127 14 -789 20 -860 9z"/>
<path d="M5156 327 c3 -10 9 -15 12 -12 3 3 0 11 -7 18 -10 9 -11 8 -5 -6z"/>
<path d="M5720 331 c0 -6 4 -13 10 -16 6 -3 7 1 4 9 -7 18 -14 21 -14 7z"/>
<path d="M5226 318 c3 -5 10 -6 15 -3 13 9 11 12 -6 12 -8 0 -12 -4 -9 -9z"/>
<path d="M5295 320 c3 -5 8 -10 11 -10 2 0 4 5 4 10 0 6 -5 10 -11 10 -5 0 -7
-4 -4 -10z"/>
<path d="M5320 326 c0 -2 7 -7 16 -10 8 -3 12 -2 9 4 -6 10 -25 14 -25 6z"/>
<path d="M5376 322 c-2 -4 4 -8 15 -8 10 0 19 4 19 8 0 4 -6 8 -14 8 -8 0 -17
-4 -20 -8z"/>
<path d="M5790 319 c0 -5 5 -7 10 -4 6 3 10 8 10 11 0 2 -4 4 -10 4 -5 0 -10
-5 -10 -11z"/>
</g>
</svg>
